HIERARCHY
ROOT Hips
{
	OFFSET 0.00 0.00 0.00
	CHANNELS 6 Xposition Yposition Zposition Zrotation Xrotation Yrotation
	JOINT Spine
	{
		OFFSET 0 13.7848 0.0644
		CHANNELS 3 Zrotation Xrotation Yrotation
		JOINT Spine1
		{
			OFFSET 0 12.0447 -0
			CHANNELS 3 Zrotation Xrotation Yrotation
			JOINT Spine2
			{
				OFFSET -0 17.8005 -0
				CHANNELS 3 Zrotation Xrotation Yrotation
				JOINT Neck
				{
					OFFSET 0 40.9166 -0
					CHANNELS 3 Zrotation Xrotation Yrotation
					JOINT Head
					{
						OFFSET -0 21.2887 0
						CHANNELS 3 Zrotation Xrotation Yrotation
						JOINT HeadTop_End
						{
							OFFSET 0 17.4474 0
							CHANNELS 3 Zrotation Xrotation Yrotation
						}
					}
				}
				JOINT LeftShoulder
				{
					OFFSET 17.3995 23.8766 -6.0721
					CHANNELS 3 Zrotation Xrotation Yrotation
					JOINT LeftArm
					{
						OFFSET -0 19.9201 -0
						CHANNELS 3 Zrotation Xrotation Yrotation
						JOINT LeftForeArm
						{
							OFFSET -0 49.2901 -0
							CHANNELS 3 Zrotation Xrotation Yrotation
							JOINT LeftHand
							{
								OFFSET 0 31.562 0
								CHANNELS 3 Zrotation Xrotation Yrotation
								JOINT LeftHandThumb1
								{
									OFFSET -7.9466 6.134 2.4863
									CHANNELS 3 Zrotation Xrotation Yrotation
									JOINT LeftHandThumb2
									{
										OFFSET -0.0255 -7.7944 -0.0327
										CHANNELS 3 Zrotation Xrotation Yrotation
										JOINT LeftHandThumb3
										{
											OFFSET -0.0205 -8.3869 0.0307
											CHANNELS 3 Zrotation Xrotation Yrotation
											JOINT LeftHandThumb4
											{
												OFFSET 0.0565 -7.2511 -0.013
												CHANNELS 3 Zrotation Xrotation Yrotation
											}
										}
									}
								}
								JOINT LeftHandPinky1
								{
									OFFSET 10.9531 18.9207 3.2871
									CHANNELS 3 Zrotation Xrotation Yrotation
									JOINT LeftHandPinky2
									{
										OFFSET -0.0034 -4.9187 0.0963
										CHANNELS 3 Zrotation Xrotation Yrotation
										JOINT LeftHandPinky3
										{
											OFFSET 0.0758 -5.2323 0.0358
											CHANNELS 3 Zrotation Xrotation Yrotation
											JOINT LeftHandPinky4
											{
												OFFSET -0.1312 -5.5702 0.001
												CHANNELS 3 Zrotation Xrotation Yrotation
											}
										}
									}
								}
								JOINT LeftHandRing1
								{
									OFFSET 6.2716 22.7261 1.7123
									CHANNELS 3 Zrotation Xrotation Yrotation
									JOINT LeftHandRing2
									{
										OFFSET -0.0452 -6.4083 0.0434
										CHANNELS 3 Zrotation Xrotation Yrotation
										JOINT LeftHandRing3
										{
											OFFSET -0.1152 -6.1487 -0.0756
											CHANNELS 3 Zrotation Xrotation Yrotation
											JOINT LeftHandRing4
											{
												OFFSET -0.2306 -6.141 -0.0323
												CHANNELS 3 Zrotation Xrotation Yrotation
											}
										}
									}
								}
								JOINT LeftHandMiddle1
								{
									OFFSET -0 23.374 -0
									CHANNELS 3 Zrotation Xrotation Yrotation
									JOINT LeftHandMiddle2
									{
										OFFSET -0.1878 -6.9921 -0.168
										CHANNELS 3 Zrotation Xrotation Yrotation
										JOINT LeftHandMiddle3
										{
											OFFSET -0.0477 -7.0158 0.0144
											CHANNELS 3 Zrotation Xrotation Yrotation
											JOINT LeftHandMiddle4
											{
												OFFSET -0.0402 -7.7215 -0.0133
												CHANNELS 3 Zrotation Xrotation Yrotation
											}
										}
									}
								}
								JOINT LeftHandIndex1
								{
									OFFSET -6.1355 21.3106 -1.073
									CHANNELS 3 Zrotation Xrotation Yrotation
									JOINT LeftHandIndex2
									{
										OFFSET 0.0766 -7.536 -0.0238
										CHANNELS 3 Zrotation Xrotation Yrotation
										JOINT LeftHandIndex3
										{
											OFFSET -0.0927 -7.5116 0.0451
											CHANNELS 3 Zrotation Xrotation Yrotation
											JOINT LeftHandIndex4
											{
												OFFSET -0.0002 -10.2123 -0.0339
												CHANNELS 3 Zrotation Xrotation Yrotation
											}
										}
									}
								}
							}
						}
					}
				}
				JOINT RightShoulder
				{
					OFFSET -17.3995 23.8766 -6.0721
					CHANNELS 3 Zrotation Xrotation Yrotation
					JOINT RightArm
					{
						OFFSET 0 19.9201 0
						CHANNELS 3 Zrotation Xrotation Yrotation
						JOINT RightForeArm
						{
							OFFSET 0 49.2901 0
							CHANNELS 3 Zrotation Xrotation Yrotation
							JOINT RightHand
							{
								OFFSET -0 31.562 0
								CHANNELS 3 Zrotation Xrotation Yrotation
								JOINT RightHandThumb1
								{
									OFFSET 7.9466 6.134 2.4863
									CHANNELS 3 Zrotation Xrotation Yrotation
									JOINT RightHandThumb2
									{
										OFFSET 0.0255 -7.7944 -0.0327
										CHANNELS 3 Zrotation Xrotation Yrotation
										JOINT RightHandThumb3
										{
											OFFSET 0.0205 -8.3869 0.0307
											CHANNELS 3 Zrotation Xrotation Yrotation
											JOINT RightHandThumb4
											{
												OFFSET -0.0565 -7.2511 -0.013
												CHANNELS 3 Zrotation Xrotation Yrotation
											}
										}
									}
								}
								JOINT RightHandIndex1
								{
									OFFSET 6.1355 21.3106 -1.073
									CHANNELS 3 Zrotation Xrotation Yrotation
									JOINT RightHandIndex2
									{
										OFFSET -0.0766 -7.536 -0.0238
										CHANNELS 3 Zrotation Xrotation Yrotation
										JOINT RightHandIndex3
										{
											OFFSET 0.0927 -7.5116 0.0451
											CHANNELS 3 Zrotation Xrotation Yrotation
											JOINT RightHandIndex4
											{
												OFFSET 0.0002 -10.2123 -0.0339
												CHANNELS 3 Zrotation Xrotation Yrotation
											}
										}
									}
								}
								JOINT RightHandMiddle1
								{
									OFFSET 0 23.374 -0
									CHANNELS 3 Zrotation Xrotation Yrotation
									JOINT RightHandMiddle2
									{
										OFFSET 0.1878 -6.9921 -0.168
										CHANNELS 3 Zrotation Xrotation Yrotation
										JOINT RightHandMiddle3
										{
											OFFSET 0.0477 -7.0158 0.0144
											CHANNELS 3 Zrotation Xrotation Yrotation
											JOINT RightHandMiddle4
											{
												OFFSET 0.0402 -7.7215 -0.0133
												CHANNELS 3 Zrotation Xrotation Yrotation
											}
										}
									}
								}
								JOINT RightHandRing1
								{
									OFFSET -6.2716 22.7261 1.7123
									CHANNELS 3 Zrotation Xrotation Yrotation
									JOINT RightHandRing2
									{
										OFFSET 0.0452 -6.4083 0.0434
										CHANNELS 3 Zrotation Xrotation Yrotation
										JOINT RightHandRing3
										{
											OFFSET 0.1152 -6.1487 -0.0756
											CHANNELS 3 Zrotation Xrotation Yrotation
											JOINT RightHandRing4
											{
												OFFSET 0.2306 -6.141 -0.0323
												CHANNELS 3 Zrotation Xrotation Yrotation
											}
										}
									}
								}
								JOINT RightHandPinky1
								{
									OFFSET -10.9531 18.9207 3.2871
									CHANNELS 3 Zrotation Xrotation Yrotation
									JOINT RightHandPinky2
									{
										OFFSET 0.0034 -4.9187 0.0963
										CHANNELS 3 Zrotation Xrotation Yrotation
										JOINT RightHandPinky3
										{
											OFFSET -0.0758 -5.2323 0.0358
											CHANNELS 3 Zrotation Xrotation Yrotation
											JOINT RightHandPinky4
											{
												OFFSET 0.1312 -5.5702 0.001
												CHANNELS 3 Zrotation Xrotation Yrotation
											}
										}
									}
								}
							}
						}
					}
				}
			}
		}
	}
	JOINT LeftUpLeg
	{
		OFFSET 19.8991 -7.8851 -3.4295
		CHANNELS 3 Zrotation Xrotation Yrotation
		JOINT LeftLeg
		{
			OFFSET -0 38.4457 -0
			CHANNELS 3 Zrotation Xrotation Yrotation
			JOINT LeftFoot
			{
				OFFSET -0.1321 32.8117 -0.1889
				CHANNELS 3 Zrotation Xrotation Yrotation
				JOINT LeftToeBase
				{
					OFFSET 0 24.02 0
					CHANNELS 3 Zrotation Xrotation Yrotation
					JOINT LeftToe_End
					{
						OFFSET -0 16.6166 -0
						CHANNELS 3 Zrotation Xrotation Yrotation
					}
				}
			}
		}
	}
	JOINT RightUpLeg
	{
		OFFSET -19.8991 -7.8851 -3.4295
		CHANNELS 3 Zrotation Xrotation Yrotation
		JOINT RightLeg
		{
			OFFSET 0 38.4457 -0
			CHANNELS 3 Zrotation Xrotation Yrotation
			JOINT RightFoot
			{
				OFFSET 0.1321 32.8117 -0.1889
				CHANNELS 3 Zrotation Xrotation Yrotation
				JOINT RightToeBase
				{
					OFFSET -0 24.02 0
					CHANNELS 3 Zrotation Xrotation Yrotation
					JOINT RightToe_End
					{
						OFFSET 0 16.6166 -0
						CHANNELS 3 Zrotation Xrotation Yrotation
					}
				}
			}
		}
	}
}
MOTION
Frames: 4
Frame Time: 0.0333333
7.9369	78.4139	-3.4106	0.228734	11.8209	-20.631	1.53517	4.27328	-0.587433	1.17839	7.03325	-1.28275	1.5929	23.2463	-1.26893	-3.85879	24.0315	2.47122	-10.2179	-43.9629	5.41311	-0	-55.7115	-0	-84.9604	-0.886989	13.8384	-69.3874	47.8014	52.0317	81.8426	41.384	-1.81555	6.65651	-16.8527	53.7477	-143.189	-2.67656	-131.279	9.50468	8.25641	-10.0831	53.3275	-2.20911	27.1347	-8.6489	-1.81523	-33.3438	130.409	-19.6197	-175.598	5.20814	36.4242	-10.5947	20.7061	53.4607	-28.9101	-0.569979	-8.19974	-4.84949	153.241	15.3684	-171.237	1.7972	57.8006	0.548923	2.54655	29.2668	-7.21956	-0	-6.0471	-0	-173.031	-3.69285	-177.418	-23.2444	63.542	27.659	-2.5472	15.7685	1.60179	0.291655	-5.22659	-2.24865	-140.819	-12.3851	-173.276	-4.03741	13.5186	6.3811	-26.8665	36.5609	30.4271	-2.39024	-0.645758	5.07582	83.3693	7.88236	-14.1851	78.3952	56.8014	-51.0741	-85.7932	41.8217	4.20337	3.64804	13.268	-57.2669	118.64	14.8755	146.956	-35.0022	-19.1511	-5.55884	0.754176	14.8307	3.6246	8.6489	-1.81523	33.3438	167.982	7.08234	-167.648	18.5656	31.4831	-21.5507	5.58283	13.6581	-9.07459	2.39024	-0.645758	-5.07582	-177.125	8.5703	178.067	32.1347	68.1114	-36.0482	8.21037	42.0388	-6.41744	-0.291655	-5.22659	2.24865	-168.684	-13.4773	176.211	-3.01238	39.1675	-2.91149	-1.46156	-1.24184	0.546228	-0	-6.0471	-0	-151.948	-45.5735	-177.583	-24.3435	60.8216	35.6015	-11.6988	43.8486	18.1198	0.569979	-8.19974	4.84949	-126.072	44.3664	-51.0058	84.374	-83.39	74.3966	-58.5146	64.9357	45.0445	-2.88484	56.8985	3.58214	-0.214127	1.01299	0.205132	141.147	38.6232	40.6884	-32.7575	-80.366	-24.2961	59.7491	66.5096	-46.8929	2.9269	55.7542	-3.39011	0.214127	1.01299	-0.205132
7.9105	78.3995	-3.4211	0.173161	11.8096	-20.5994	1.57224	4.28138	-0.581924	1.19198	7.05549	-1.26639	1.59674	23.2691	-1.24966	-3.91418	24.0237	2.47315	-10.2824	-43.8883	5.42035	-0	-55.7115	-0	-85.28	-1.00221	13.8232	-68.9904	48.0514	51.8503	81.894	41.3905	-1.8464	6.36552	-16.7154	53.6706	-143.189	-2.67664	-131.279	9.50468	8.25641	-10.0831	53.3276	-2.20911	27.1347	-8.6489	-1.81523	-33.3438	130.409	-19.6198	-175.598	5.20814	36.4242	-10.5947	20.7061	53.4607	-28.9101	-0.569979	-8.19974	-4.84949	153.241	15.3684	-171.237	1.7972	57.8006	0.548923	2.54655	29.2668	-7.21956	-0	-6.0471	-0	-173.031	-3.69285	-177.418	-23.2443	63.5419	27.6589	-2.5472	15.7685	1.60179	0.291655	-5.22659	-2.24865	-140.819	-12.3851	-173.276	-4.03741	13.5186	6.3811	-26.8665	36.5609	30.4271	-2.39024	-0.645758	5.07582	83.325	7.87073	-14.1763	78.3774	56.8366	-51.1231	-85.8047	41.8227	4.21043	3.6116	13.2568	-57.1569	118.64	14.8755	146.956	-35.0022	-19.1511	-5.55884	0.754176	14.8307	3.6246	8.6489	-1.81523	33.3438	167.982	7.08234	-167.648	18.5656	31.4831	-21.5507	5.58283	13.6581	-9.07459	2.39024	-0.645758	-5.07582	-177.125	8.5703	178.067	32.1347	68.1114	-36.0482	8.21037	42.0388	-6.41744	-0.291655	-5.22659	2.24865	-168.684	-13.4773	176.211	-3.01228	39.1675	-2.91149	-1.46156	-1.24184	0.546328	-0	-6.0471	-0	-151.948	-45.5735	-177.583	-24.3436	60.8216	35.6017	-11.6988	43.8486	18.1198	0.569979	-8.19974	4.84949	-125.997	44.4164	-51.0537	84.7928	-83.3066	74.8424	-58.3614	64.9415	44.9535	-2.88275	56.9332	3.58218	-0.214127	1.01299	0.205132	141.211	38.6132	40.6785	-32.9531	-80.4137	-24.5132	59.6897	66.5154	-46.8655	2.9092	55.7968	-3.2809	0.214127	1.01299	-0.205132
7.8561	78.395	-3.4431	0.12407	11.7982	-20.5471	1.61818	4.29008	-0.578521	1.21578	7.07383	-1.25264	1.61106	23.288	-1.23307	-3.97905	24.0227	2.46853	-10.3303	-43.8154	5.41982	-0	-55.7115	-0	-85.6416	-1.13204	13.8042	-68.5521	48.3138	51.7014	81.9593	41.3988	-1.8857	6.09057	-16.6006	53.5961	-143.189	-2.67656	-131.279	9.50468	8.25641	-10.0831	53.3276	-2.20911	27.1347	-8.6489	-1.81523	-33.3438	130.409	-19.6198	-175.598	5.20812	36.4241	-10.5947	20.7061	53.4607	-28.9101	-0.569979	-8.19974	-4.84949	153.241	15.3684	-171.237	1.7972	57.8006	0.548923	2.54665	29.2668	-7.21956	-0	-6.0471	-0	-173.031	-3.69285	-177.418	-23.2444	63.542	27.659	-2.5472	15.7685	1.60179	0.291655	-5.22659	-2.24865	-140.819	-12.3851	-173.276	-4.03741	13.5186	6.3811	-26.8665	36.5609	30.4271	-2.39024	-0.645758	5.07582	83.2637	7.85512	-14.1642	78.3524	56.8486	-51.1786	-85.8465	41.8267	4.23581	3.55373	13.2205	-56.9989	118.64	14.8755	146.956	-35.0022	-19.1511	-5.55884	0.754176	14.8307	3.6246	8.6489	-1.81523	33.3438	167.982	7.08234	-167.648	18.5657	31.4831	-21.5507	5.58283	13.6581	-9.07459	2.39024	-0.645758	-5.07582	-177.125	8.5703	178.067	32.1347	68.1114	-36.0482	8.21037	42.0388	-6.41744	-0.291655	-5.22659	2.24865	-168.684	-13.4773	176.211	-3.01238	39.1675	-2.91149	-1.46146	-1.24184	0.546228	-0	-6.0471	-0	-151.948	-45.5735	-177.583	-24.3435	60.8216	35.6015	-11.6988	43.8486	18.1198	0.569979	-8.19974	4.84949	-125.914	44.4546	-51.1166	84.7274	-83.2248	74.8386	-58.1144	64.9293	44.7909	-2.88102	56.9626	3.58225	-0.214127	1.01299	0.205132	141.307	38.6103	40.6415	-33.2105	-80.4791	-24.7614	59.6648	66.531	-46.8688	2.88775	55.8479	-3.15004	0.214127	1.01299	-0.205132
7.7782	78.4035	-3.4732	0.0886714	11.7897	-20.4733	1.66851	4.30409	-0.573116	1.24076	7.09217	-1.23465	1.62439	23.307	-1.21223	-4.04263	24.0222	2.45823	-10.3648	-43.7598	5.40477	-0	-55.7115	-0	-85.9467	-1.24236	13.7869	-68.1917	48.5517	51.6294	82.018	41.4062	-1.92099	5.89618	-16.5133	53.5585	-143.189	-2.67656	-131.279	9.50468	8.25641	-10.0831	53.3276	-2.20911	27.1347	-8.6489	-1.81523	-33.3438	130.41	-19.6198	-175.598	5.20812	36.4241	-10.5947	20.7061	53.4607	-28.9101	-0.569979	-8.19974	-4.84949	153.241	15.3684	-171.237	1.7972	57.8006	0.548923	2.54655	29.2668	-7.21956	-0	-6.0471	-0	-173.031	-3.69285	-177.418	-23.2444	63.542	27.659	-2.5472	15.7685	1.60179	0.291655	-5.22659	-2.24865	-140.819	-12.3851	-173.276	-4.03743	13.5187	6.3811	-26.8665	36.5609	30.4271	-2.39024	-0.645758	5.07582	83.1976	7.84217	-14.1511	78.3056	56.8186	-51.1978	-85.9797	41.8392	4.31674	3.48904	13.1578	-56.7923	118.64	14.8755	146.956	-35.0022	-19.1511	-5.55884	0.754176	14.8307	3.6246	8.6489	-1.81523	33.3438	167.982	7.08234	-167.648	18.5657	31.4831	-21.5507	5.58283	13.6581	-9.07459	2.39024	-0.645758	-5.07582	-177.125	8.5703	178.067	32.1347	68.1114	-36.0482	8.21035	42.0387	-6.41743	-0.291655	-5.22659	2.24865	-168.684	-13.4773	176.211	-3.01238	39.1675	-2.91149	-1.46146	-1.24184	0.546328	-0	-6.0471	-0	-151.948	-45.5735	-177.583	-24.3436	60.8216	35.6017	-11.6988	43.8486	18.1198	0.569979	-8.19974	4.84949	-125.848	44.4884	-51.1643	84.1137	-83.1515	74.3012	-57.8063	64.8926	44.5694	-2.87996	56.9803	3.5823	-0.214127	1.01299	0.205132	141.432	38.6049	40.5716	-33.446	-80.5455	-24.9395	59.7265	66.5551	-46.932	2.86998	55.8893	-3.04381	0.214127	1.01299	-0.205132
